<svg width="1847" height="1600" xmlns="http://www.w3.org/2000/svg">

 <g>
  <title>Layer 1</title>
  <path d="M 252.139 846.12 L 252.139 846.12 C 241.091 473.396 523.887 162.657 883.782 152.065 L 883.782 152.065 C 1056.61 146.978 1224.47 213.203 1350.43 336.17 C 1476.39 459.136 1550.13 628.774 1555.43 807.761 L 1555.43 807.761 C 1566.48 1180.48 1283.69 1491.22 923.792 1501.82 L 923.792 1501.82 C 563.897 1512.41 263.188 1218.84 252.139 846.12 Z" id="imagebot_47" stroke-linecap="round" stroke-linejoin="round" stroke-width="11.5" stroke="#000000" fill="#7f7f7f"/>
  <path id="imagebot_67" d="M 515.943 288.525 L 1292.83 291.657" stroke-linecap="round" stroke-linejoin="round" stroke-dasharray="null" stroke-width="21" stroke="#b2b2b2" fill-opacity="null" fill="none"/>
  <path id="imagebot_48" d="M 262.89 788.079 L 1541.77 792.847" stroke-linecap="round" stroke-linejoin="round" stroke-dasharray="null" stroke-width="42" stroke="#b2b2b2" fill-opacity="null" fill="none"/>
  <path id="imagebot_49" d="M 262.89 850.068 L 1541.77 854.836" stroke-linecap="round" stroke-linejoin="round" stroke-dasharray="null" stroke-width="42" stroke="#b2b2b2" fill-opacity="null" fill="none"/>
  <line id="imagebot_50" transform="translate(0 -4.76837) matrix(0.982416 0 0 1 32.5425 52.4521)" y2="773.77397" x2="1536.2358" y1="769.0056" x1="234.47032" stroke-linecap="round" stroke-linejoin="round" stroke-dasharray="null" stroke-width="29.5" stroke="#000000" fill="none"/>
  <path id="imagebot_65" d="M 277.083 687.943 L 1542.23 692.711" stroke-linecap="round" stroke-linejoin="round" stroke-dasharray="null" stroke-width="22.5" stroke="#b2b2b2" fill-opacity="null" fill="none"/>
  <path id="imagebot_66" d="M 361.419 467.515 L 1452.92 471.798" stroke-linecap="round" stroke-linejoin="round" stroke-dasharray="null" stroke-width="31" stroke="#b2b2b2" fill-opacity="null" fill="none"/>
  <path transform="translate(0 4.76837) matrix(1.78971 0 0 1.78971 720.024 152.588)" d="M 139.147 223.552 L 139.147 223.552 C 139.147 176.937 176.937 139.147 223.552 139.147 L 223.552 139.147 C 245.938 139.147 267.407 148.04 283.236 163.869 C 299.065 179.698 307.957 201.167 307.957 223.552 L 307.957 223.552 C 307.957 270.168 270.168 307.957 223.552 307.957 L 223.552 307.957 C 176.937 307.957 139.147 270.168 139.147 223.552 Z" id="imagebot_51" stroke-opacity="null" stroke-linecap="round" stroke-linejoin="round" stroke-dasharray="null" stroke-width="6" stroke="#000000" fill="#b2b2b2"/>
  <path transform="translate(4.76837 0) matrix(1.78971 0 0 1.78971 629.425 61.9889)" d="M 236.869 276.537 L 236.869 276.537 C 236.869 254.629 254.629 236.869 276.537 236.869 L 276.537 236.869 C 287.058 236.869 297.147 241.048 304.586 248.488 C 312.026 255.927 316.205 266.017 316.205 276.537 L 316.205 276.537 C 316.205 298.445 298.445 316.205 276.537 316.205 L 276.537 316.205 C 254.629 316.205 236.869 298.445 236.869 276.537 Z" id="imagebot_52" stroke-opacity="null" stroke-linecap="round" stroke-linejoin="round" stroke-dasharray="null" stroke-width="10" stroke="#000000" fill="#b2b2b2"/>
  <path transform="translate(0 -4.76837) matrix(1.78971 0 0 1.78971 581.741 14.3052)" id="imagebot_53" d="M 286.118 306.281 L 286.118 306.281 C 286.118 295.145 295.145 286.118 306.281 286.118 L 306.281 286.118 C 311.629 286.118 316.758 288.242 320.539 292.024 C 324.321 295.805 326.445 300.934 326.445 306.281 L 326.445 306.281 C 326.445 317.418 317.418 326.445 306.281 326.445 L 306.281 326.445 C 295.145 326.445 286.118 317.418 286.118 306.281 Z" stroke-opacity="null" stroke-linecap="round" stroke-linejoin="round" stroke-dasharray="null" stroke-width="6.5" stroke="#000000" fill="#b2b2b2"/>
  <line transform="translate(0 -4.76837)" id="imagebot_54" y2="435.21958" x2="1192.91304" y1="497.20841" x1="1154.76606" stroke-opacity="null" stroke-linecap="round" stroke-linejoin="round" stroke-dasharray="null" stroke-width="10" stroke="#000000" fill="none"/>
  <line id="imagebot_55" y2="497.20841" x2="1254.90187" y1="535.35539" x1="1202.44978" stroke-opacity="null" stroke-linecap="round" stroke-linejoin="round" stroke-dasharray="null" stroke-width="10" stroke="#000000" fill="none"/>
  <line transform="translate(-4.76837 0)" id="imagebot_56" y2="606.88096" x2="1269.20699" y1="583.03911" x1="1207.21815" stroke-opacity="null" stroke-linecap="round" stroke-linejoin="round" stroke-dasharray="null" stroke-width="10" stroke="#000000" fill="none"/>
  <line transform="translate(0 -4.76837)" id="imagebot_58" y2="425.68284" x2="1078.47212" y1="497.20841" x1="1111.85072" stroke-opacity="null" stroke-linecap="round" stroke-linejoin="round" stroke-dasharray="null" stroke-width="10" stroke="#000000" fill="none"/>
  <line transform="rotate(7.59462 1188.14 654.565) translate(0 -4.76837)" id="imagebot_59" y2="683.17491" x2="1211.98653" y1="635.49119" x1="1164.30281" stroke-opacity="null" stroke-linecap="round" stroke-linejoin="round" stroke-dasharray="null" stroke-width="10" stroke="#000000" fill="none"/>
  <line id="imagebot_61" y2="473.36656" x2="1006.94654" y1="516.2819" x1="1068.93537" fill-opacity="null" stroke-opacity="null" stroke-linecap="round" stroke-linejoin="round" stroke-dasharray="null" stroke-width="10" stroke="#000000" fill="none"/>
  <line id="imagebot_62" y2="573.50236" x2="973.56794" y1="568.73399" x1="1054.63026" fill-opacity="null" stroke-opacity="null" stroke-linecap="round" stroke-linejoin="round" stroke-dasharray="null" stroke-width="10" stroke="#000000" fill="none"/>
  <line transform="translate(4.76837 0) translate(0 -4.76837)" id="imagebot_63" y2="664.10142" x2="1006.94654" y1="611.64934" x1="1073.70375" fill-opacity="null" stroke-opacity="null" stroke-linecap="round" stroke-linejoin="round" stroke-dasharray="null" stroke-width="10" stroke="#000000" fill="none"/>
  <line transform="translate(0 -4.76837)" id="imagebot_64" y2="711.78514" x2="1107.08235" y1="640.25957" x1="1116.61909" fill-opacity="null" stroke-opacity="null" stroke-linecap="round" stroke-linejoin="round" stroke-dasharray="null" stroke-width="10" stroke="#000000" fill="none"/>
  <path transform="rotate(349.695 463.352 573.503)" id="imagebot_72" d="M 501.499 478.135 L 425.205 668.87 L 501.499 478.135 Z" fill-opacity="null" stroke-linecap="round" stroke-linejoin="round" stroke-dasharray="null" stroke-width="31" stroke="#b2b2b2" fill="none"/>
  <path id="imagebot_73" transform="rotate(349.695 601.635 578.271) translate(138.283 4.76837)" d="M501.49899,478.13501L425.20499,668.87L501.49899,478.13501z" fill-opacity="null" stroke-linecap="round" stroke-linejoin="round" stroke-dasharray="null" stroke-width="31" stroke="#b2b2b2" fill="none"/>
  <path id="imagebot_74" transform="rotate(349.695 859.126 578.271) translate(395.775 4.76837)" d="M501.49899,478.13501L425.20499,668.87L501.49899,478.13501z" fill-opacity="null" stroke-linecap="round" stroke-linejoin="round" stroke-dasharray="null" stroke-width="31" stroke="#b2b2b2" fill="none"/>
  <path id="imagebot_75" transform="rotate(324.345 1412.26 578.271) matrix(1 0 0 1 948.906 4.76837)" d="M501.49899,478.13501L425.20499,668.87L501.49899,478.13501z" fill-opacity="null" stroke-linecap="round" stroke-linejoin="round" stroke-dasharray="null" stroke-width="31" stroke="#b2b2b2" fill="none"/>
  <path transform="rotate(355.515 578.15 717.492) matrix(0.983869 -0.178888 0.178888 0.983869 33.6274 158.896)" id="imagebot_76" d="M 454.374 600.581 L 417.248 693.396 L 454.374 600.581 Z" fill-opacity="null" stroke-linecap="round" stroke-linejoin="round" stroke-dasharray="null" stroke-width="31" stroke="#b2b2b2" fill="none"/>
  <path id="imagebot_77" transform="rotate(355.515 830.878 722.263) matrix(0.983869 -0.178888 0.178888 0.983869 286.351 163.664)" d="M454.37363,600.58118L417.24753,693.39636L454.37363,600.58118z" fill-opacity="null" stroke-linecap="round" stroke-linejoin="round" stroke-dasharray="null" stroke-width="31" stroke="#b2b2b2" fill="none"/>
  <path transform="rotate(352.666 1234.46 748.12) matrix(0.966868 -0.255277 0.255277 0.966868 654.417 217.492)" id="imagebot_78" d="M 440.925 622.231 L 409.815 700.008 L 440.925 622.231 Z" fill-opacity="null" stroke-linecap="round" stroke-linejoin="round" stroke-dasharray="null" stroke-width="31" stroke="#b2b2b2" fill="none"/>
  <path id="imagebot_79" transform="rotate(352.666 1439.5 748.119) matrix(0.966868 -0.255277 0.255277 0.966868 859.457 217.492)" d="M440.92532,622.23132L409.81461,700.00812L440.92532,622.23132z" fill-opacity="null" stroke-linecap="round" stroke-linejoin="round" stroke-dasharray="null" stroke-width="31" stroke="#b2b2b2" fill="none"/>
  <path transform="rotate(347.019 751.811 380.498) matrix(0.983869 -0.178888 0.178888 0.983869 205.289 -141.512)" id="imagebot_80" d="M 472.353 541.282 L 416.295 681.428 L 472.353 541.282 Z" fill-opacity="null" stroke-linecap="round" stroke-linejoin="round" stroke-dasharray="null" stroke-width="31" stroke="#b2b2b2" fill="none"/>
  <path transform="matrix(0.919368 0.3934 -0.3934 0.919368 152.109 -290.114) matrix(0.918543 -0.395321 0.395321 0.918543 147.439 -197.531)" id="imagebot_81" d="M 436.931 590.946 L 397.21 690.247 L 436.931 590.946 Z" fill-opacity="null" stroke-linecap="round" stroke-linejoin="round" stroke-dasharray="null" stroke-width="31" stroke="#b2b2b2" fill="none"/>
  <path transform="rotate(347.342 620.477 246.412) matrix(0.999998 -0.00209065 0.00209065 0.999998 365.368 -447.094)" id="imagebot_82" d="M 281.167 669.845 L 226.146 718.23 L 281.167 669.845 Z" fill-opacity="null" stroke-linecap="round" stroke-linejoin="round" stroke-dasharray="null" stroke-width="31" stroke="#b2b2b2" fill="none"/>
  <path id="imagebot_83" d="M 281.567 988.066 L 1514.72 992.714" stroke-linecap="round" stroke-linejoin="round" stroke-dasharray="null" stroke-width="22.5" stroke="#b2b2b2" fill-opacity="null" fill="none"/>
  <path id="imagebot_84" d="M 379.643 1196.47 L 1426.48 1200.63" stroke-linecap="round" stroke-linejoin="round" stroke-dasharray="null" stroke-width="43" stroke="#b2b2b2" fill-opacity="null" fill="none"/>
  <path id="imagebot_85" d="M 515.407 1357.09 L 1294.01 1360.53" stroke-linecap="round" stroke-linejoin="round" stroke-dasharray="null" stroke-width="22.5" stroke="#b2b2b2" fill-opacity="null" fill="none"/>
  <path id="imagebot_86" transform="rotate(355.515 387.417 922.536) matrix(0.983869 -0.178888 0.178888 0.983869 -157.107 363.936)" d="M454.37363,600.58118L417.24753,693.39636L454.37363,600.58118z" fill-opacity="null" stroke-linecap="round" stroke-linejoin="round" stroke-dasharray="null" stroke-width="31" stroke="#b2b2b2" fill="none"/>
  <path id="imagebot_87" transform="rotate(350.725 687.821 922.529) matrix(0.983869 -0.178888 0.178888 0.983869 143.3 363.936)" d="M454.37363,600.58118L417.24753,693.39636L454.37363,600.58118z" fill-opacity="null" stroke-linecap="round" stroke-linejoin="round" stroke-dasharray="null" stroke-width="27" stroke="#b2b2b2" fill="none"/>
  <path id="imagebot_88" transform="rotate(350.725 778.419 922.528) matrix(0.983869 -0.178888 0.178888 0.983869 233.899 363.936)" d="M454.37363,600.58118L417.24753,693.39636L454.37363,600.58118z" fill-opacity="null" stroke-linecap="round" stroke-linejoin="round" stroke-dasharray="null" stroke-width="27" stroke="#b2b2b2" fill="none"/>
  <path id="imagebot_89" transform="rotate(350.725 835.639 922.528) matrix(0.983869 -0.178888 0.178888 0.983869 291.12 363.936)" d="M454.37363,600.58118L417.24753,693.39636L454.37363,600.58118z" fill-opacity="null" stroke-linecap="round" stroke-linejoin="round" stroke-dasharray="null" stroke-width="27" stroke="#b2b2b2" fill="none"/>
  <path id="imagebot_90" transform="rotate(352.624 1155.12 922.525) matrix(0.983869 -0.178888 0.178888 0.983869 610.6 363.936)" d="M454.37363,600.58118L417.24753,693.39636L454.37363,600.58118z" fill-opacity="null" stroke-linecap="round" stroke-linejoin="round" stroke-dasharray="null" stroke-width="27" stroke="#b2b2b2" fill="none"/>
  <path id="imagebot_91" transform="rotate(356.971 1388.78 922.535) matrix(0.983869 -0.178888 0.178888 0.983869 844.25 363.936)" d="M454.37363,600.58118L417.24753,693.39636L454.37363,600.58118z" fill-opacity="null" stroke-linecap="round" stroke-linejoin="round" stroke-dasharray="null" stroke-width="32" stroke="#b2b2b2" fill="none"/>
  <path transform="rotate(355.504 394.556 1090.54) matrix(0.879224 -0.476408 0.476408 0.879224 -308.767 767.802)" id="imagebot_92" d="M 496.905 538.122 L 432.341 699.53 L 496.905 538.122 Z" fill-opacity="null" stroke-linecap="round" stroke-linejoin="round" stroke-dasharray="null" stroke-width="31" stroke="#b2b2b2" fill="none"/>
  <path id="imagebot_93" transform="rotate(3.62665 590.855 1085.85) matrix(0.895424 -0.445214 0.445214 0.895424 -96.8864 743.42)" d="M494.13339,535.89221L432.59827,689.73022L494.13339,535.89221z" fill-opacity="null" stroke-linecap="round" stroke-linejoin="round" stroke-dasharray="null" stroke-width="31" stroke="#b2b2b2" fill="none"/>
  <path id="imagebot_94" transform="rotate(3.62665 729.137 1085.85) matrix(0.895424 -0.445214 0.445214 0.895424 41.3964 743.42)" d="M494.13339,535.89221L432.59827,689.73022L494.13339,535.89221z" fill-opacity="null" stroke-linecap="round" stroke-linejoin="round" stroke-dasharray="null" stroke-width="30.5" stroke="#b2b2b2" fill="none"/>
  <path id="imagebot_95" transform="rotate(3.62665 838.81 1085.85) matrix(0.895424 -0.445214 0.445214 0.895424 151.069 743.42)" d="M494.13339,535.89221L432.59827,689.73022L494.13339,535.89221z" fill-opacity="null" stroke-linecap="round" stroke-linejoin="round" stroke-dasharray="null" stroke-width="24" stroke="#b2b2b2" fill="none"/>
  <path transform="rotate(3.85339 1200.65 1084.44) matrix(0.921793 -0.387683 0.387683 0.921793 531.735 705.371)" id="imagebot_96" d="M 501.931 528.024 L 437.353 689.47 L 501.931 528.024 Z" fill-opacity="null" stroke-linecap="round" stroke-linejoin="round" stroke-dasharray="null" stroke-width="30.5" stroke="#b2b2b2" fill="none"/>
  <path id="imagebot_97" transform="rotate(7.3934 1367.54 1089.21) matrix(0.921793 -0.387683 0.387683 0.921793 698.628 710.139)" d="M501.93076,528.02399L437.35263,689.46954L501.93076,528.02399z" fill-opacity="null" stroke-linecap="round" stroke-linejoin="round" stroke-dasharray="null" stroke-width="30.5" stroke="#b2b2b2" fill="none"/>
  <path transform="rotate(356.59 551.385 1275.97) matrix(0.839173 -0.543864 0.543864 0.839173 -198.388 986.053)" id="imagebot_98" d="M 497.763 585.442 L 445.265 716.687 L 497.763 585.442 Z" fill-opacity="null" stroke-linecap="round" stroke-linejoin="round" stroke-dasharray="null" stroke-width="31" stroke="#b2b2b2" fill="none"/>
  <path id="imagebot_99" transform="rotate(13.168 1018.68 1275.97) matrix(0.839173 -0.543864 0.543864 0.839173 268.912 986.053)" d="M497.76257,585.44208L445.26465,716.68707L497.76257,585.44208z" fill-opacity="null" stroke-linecap="round" stroke-linejoin="round" stroke-dasharray="null" stroke-width="31" stroke="#b2b2b2" fill="none"/>
  <path d="M 242.318 824.724 L 242.318 824.724 C 242.318 450.42 538.469 146.987 903.789 146.987 L 903.789 146.987 C 1079.22 146.987 1247.47 218.391 1371.52 345.492 C 1495.57 472.592 1565.26 644.978 1565.26 824.724 L 1565.26 824.724 C 1565.26 1199.03 1269.11 1502.46 903.789 1502.46 L 903.789 1502.46 C 538.469 1502.46 242.318 1199.03 242.318 824.724 Z" id="imagebot_100" fill-opacity="0" stroke-opacity="null" stroke-linecap="round" stroke-linejoin="round" stroke-dasharray="null" stroke-width="12.5" stroke="#000000" fill="#ccc"/>
 </g>
</svg>