<svg xmlns="http://www.w3.org/2000/svg" viewBox="0 0 64 64" width="64" height="64">
  <defs>
    <linearGradient id="g" x1="0" y1="0" x2="0" y2="1">
      <stop offset="0%" stop-color="#555"/>
      <stop offset="100%" stop-color="#1a1a1a"/>
    </linearGradient>
  </defs>
  <!-- Helmet dome -->
  <path d="M32 4C16 4 6 18 6 30c0 4 1 8 3 11l5 3v-6c0-8 4-16 10-20h2c-5 5-8 12-8 18v8l14 9 14-9v-8c0-6-3-13-8-18h2c6 4 10 12 10 20v6l5-3c2-3 3-7 3-11C58 18 48 4 32 4z" fill="url(#g)"/>
  <!-- Forehead ridge -->
  <path d="M18 28c4-6 9-10 14-10s10 4 14 10" fill="none" stroke="#333" stroke-width="2.5" stroke-linecap="round"/>
  <!-- Left eye -->
  <path d="M15 34l8-3 4 3-6 4z" fill="#222" stroke="#111" stroke-width="0.8"/>
  <!-- Right eye -->
  <path d="M49 34l-8-3-4 3 6 4z" fill="#222" stroke="#111" stroke-width="0.8"/>
  <!-- Nose bridge -->
  <path d="M30 35l2 6 2-6" fill="none" stroke="#333" stroke-width="1.5" stroke-linecap="round" stroke-linejoin="round"/>
  <!-- Mouth grille -->
  <path d="M22 44c3 3 6 5 10 5s7-2 10-5" fill="none" stroke="#333" stroke-width="1.5" stroke-linecap="round"/>
  <path d="M24 47c2 2 5 3 8 3s6-1 8-3" fill="none" stroke="#333" stroke-width="1" stroke-linecap="round"/>
  <path d="M26 50c2 1 4 2 6 2s4-1 6-2" fill="none" stroke="#333" stroke-width="0.8" stroke-linecap="round"/>
  <!-- Cheek vents -->
  <line x1="16" y1="39" x2="22" y2="42" stroke="#333" stroke-width="0.8"/>
  <line x1="16" y1="41" x2="21" y2="44" stroke="#333" stroke-width="0.8"/>
  <line x1="48" y1="39" x2="42" y2="42" stroke="#333" stroke-width="0.8"/>
  <line x1="48" y1="41" x2="43" y2="44" stroke="#333" stroke-width="0.8"/>
</svg>
